<?xml version="1.0" encoding="utf-8"?>
<!-- Generator: Adobe Illustrator 23.0.6, SVG Export Plug-In . SVG Version: 6.00 Build 0)  -->
<svg version="1.1" id="Capa_1" xmlns="http://www.w3.org/2000/svg" xmlns:xlink="http://www.w3.org/1999/xlink" x="0px" y="0px"
	 viewBox="0 0 500.3 361.4" style="enable-background:new 0 0 500.3 361.4;" xml:space="preserve">
<style type="text/css">
	.st0{fill:#FFFFFF;}
</style>
<title>Logo-Gtd</title>
<g>
	<path class="st0" d="M278,222.4l-0.1-83.4h36.8V83.4h-36.8V38.9c0-0.1,0-0.1,0-0.2s0-0.1,0-0.2C277.8,17.4,260.7,0.2,239.5,0h-0.3
		h-0.3h-16.4v83.5h-28.5c-30.4,0.4-54.9,25.2-54.9,55.6c0,0,0,0.1,0,0.1l0,0v41.4l0,0l0,0c0,23-18.7,41.7-41.7,41.7l-27.8,0.2v-0.1
		h-0.1C31.1,222.4,0,253.6,0,292s31.1,69.5,69.5,69.5h0.8h124.3c0-30.6-24.8-55.5-55.4-55.6H69.4v0c-7.7-0.2-13.7-6.6-13.5-14.3
		c0.2-7.4,6.1-13.3,13.5-13.5l0,0l0,0v0l27.8-0.1c53.7,0,97.3-43.6,97.3-97.3c0,0,0-0.1,0-0.1l0,0V139h27.8l-0.1,100.1
		c0,0.1,0,0.1,0,0.2s0,0.1,0,0.2c0.1,21.2,17.2,38.4,38.4,38.5h0.3h0.3h16.7l0,0h36.8v-55.6L278,222.4z"/>
	<rect x="222.4" y="83.5" class="st0" width="55.5" height="55.5"/>
	<path class="st0" d="M194.6,180.7c0,53.7-43.6,97.3-97.3,97.2S0,234.3,0,180.6c0-53.7,43.6-97.2,97.3-97.2
		C151,83.3,194.6,126.9,194.6,180.7L194.6,180.7z M97.3,139c-23,0-41.7,18.7-41.7,41.7s18.7,41.7,41.7,41.7s41.7-18.7,41.7-41.7
		c0,0,0,0,0,0C139,157.7,120.3,139,97.3,139C97.3,139,97.3,139,97.3,139z"/>
	<path class="st0" d="M153.8,101.4c-9.5,10.2-14.8,23.7-14.8,37.7c0,0,0,0.1,0,0.1l0,0v41.4l0,0l0,0c0,2.6-0.3,5.2-0.8,7.8
		c0,0.2-0.1,0.4-0.1,0.6c-4,19.4-21.1,33.3-40.9,33.3l0,0l-27.7,0.1v-0.1h-0.1c-17.9,0-35.1,6.9-48,19.2
		c18.4,23,46.3,36.4,75.8,36.3c0.7,0,1.3,0,1.9,0c1,0,2.1,0,3.1-0.1l0.7,0c1.4-0.1,2.9-0.2,4.3-0.3c0.4,0,0.7-0.1,1-0.1
		c13.9-1.6,27.3-6.1,39.3-13.4l0.2-0.1c3.5-2.1,6.8-4.5,10-7c0.5-0.4,1-0.8,1.4-1.1s0.8-0.7,1.2-1c0.8-0.7,1.6-1.4,2.4-2
		c0.4-0.4,0.8-0.8,1.2-1.1c0.7-0.7,1.5-1.4,2.2-2.1c0.9-0.9,1.7-1.8,2.6-2.7l0.6-0.7c0.6-0.6,1.1-1.2,1.6-1.9s1-1.1,1.4-1.6
		s0.7-0.9,1.1-1.4c0.6-0.8,1.2-1.5,1.8-2.3c0.4-0.6,0.9-1.2,1.3-1.8s1-1.3,1.4-2s0.8-1.2,1.2-1.8s0.9-1.4,1.4-2.1
		c0.3-0.6,0.7-1.1,1-1.7c0.4-0.8,0.9-1.6,1.4-2.4c0.3-0.5,0.5-1,0.8-1.5c0.5-0.9,0.9-1.8,1.4-2.7c0.3-0.6,0.5-1.1,0.8-1.7
		c0.4-0.9,0.8-1.7,1.2-2.6c0.3-0.6,0.5-1.3,0.8-2c0.3-0.8,0.7-1.6,1-2.5s0.5-1.5,0.8-2.3s0.5-1.5,0.8-2.2s0.4-1.6,0.7-2.4
		s0.4-1.5,0.6-2.3s0.4-1.7,0.6-2.6c0.2-0.7,0.3-1.4,0.5-2.1s0.3-1.6,0.4-2.5s0.3-1.6,0.4-2.3s0.2-1.4,0.3-2.1
		c0.1-0.9,0.3-1.8,0.4-2.8s0.1-1.6,0.2-2.4s0.1-1.7,0.2-2.6s0-1.6,0.1-2.5s0.1-1.7,0.1-2.5l0,0C194.6,149.2,179.4,119.7,153.8,101.4
		z"/>
	<path class="st0" d="M500.2,180.6c0.1,53.8-43.4,97.5-97.2,97.6c-53.8,0.1-97.5-43.4-97.6-97.2c-0.1-53.8,43.4-97.5,97.2-97.6
		c0.1,0,0.1,0,0.2,0C456.6,83.3,500.2,126.8,500.2,180.6z M402.7,139c-23,0-41.7,18.7-41.8,41.7s18.7,41.7,41.7,41.8
		s41.7-18.7,41.8-41.7c0,0,0,0,0,0C444.4,157.7,425.7,139,402.7,139z"/>
	<path class="st0" d="M500.3,38.6C500.2,17.3,482.9,0.1,461.7,0h-0.3H461h-16.3v278h55.6V38.9c0-0.1,0-0.1,0-0.2
		S500.3,38.6,500.3,38.6z"/>
	<path class="st0" d="M444.8,92.8v175.6c48.5-23,69.1-81,46.1-129.5C481.3,118.7,465,102.4,444.8,92.8L444.8,92.8z"/>
</g>
</svg>
